inDegrees=yes
name=ik_XSDot_20240320_161646_orientations
DataType=double
version=3
OpenSimVersion=4.5-2024-01-10-34fd6af
endheader
time	pelvis_tilt	pelvis_list	pelvis_rotation	pelvis_tx	pelvis_ty	pelvis_tz	hip_flexion_r	hip_adduction_r	hip_rotation_r	knee_angle_r	knee_angle_r_beta	ankle_angle_r	subtalar_angle_r	mtp_angle_r	hip_flexion_l	hip_adduction_l	hip_rotation_l	knee_angle_l	knee_angle_l_beta	ankle_angle_l	subtalar_angle_l	mtp_angle_l	lumbar_extension	lumbar_bending	lumbar_rotation	arm_flex_r	arm_add_r	arm_rot_r	elbow_flex_r	pro_sup_r	wrist_flex_r	wrist_dev_r	arm_flex_l	arm_add_l	arm_rot_l	elbow_flex_l	pro_sup_l	wrist_flex_l	wrist_dev_l
2.859999999999983	3.204154661636603	-10.6709952844567	169.0583637174948	0	0.9399999999999999	0	46.0385494596967	18.74703961752063	-9.852263545611061	0.005863416773513843	0.0001023359281144792	-4.829921702805013	0	0	-25.27380344633304	-7.342559454200761	7.152506631173527	0.0152497771109697	0.0002661588207816899	-4.829921702805013	0	0	0	0	0	0	-6.111182438839425	0	53.6934708599679	41.45264845806525	0	0	0	-6.111182438839425	0	53.6934708599679	41.45264845806525	0	0
2.869999999999983	2.329323372810849	-11.12050208901681	168.5375550397597	0	0.9399999999999999	0	45.15795738070702	18.47761492435439	-9.309652420327803	0.005455501201121447	9.521645830607461e-05	-4.830582468988722	0	0	-26.49674965840356	-7.929148734971604	6.360805664159457	0.01368966284174761	0.0002389296900764193	-4.830582468988722	0	0	0	0	0	0	-6.115158854189912	0	53.71349262880006	41.46111419948847	0	0	0	-6.115158854189912	0	53.71349262880006	41.46111419948847	0	0
2.879999999999983	2.494548271315051	-11.62498724110678	168.0751565952955	0	0.9399999999999999	0	45.09958196339603	18.42376705548905	-8.746928449840418	0.005164333147727117	9.013461709772091e-05	-4.831211054374989	0	0	-26.64914130220653	-8.743995140018205	5.274354818192451	0.01264318851470681	0.0002206652675319653	-4.831211054374989	0	0	0	0	0	0	-6.118950264864051	0	53.73257663198529	41.46917653092222	0	0	0	-6.118950264864051	0	53.73257663198529	41.46917653092222	0	0
2.889999999999982	3.090528862000474	-12.10056880363913	167.7161597460733	0	0.9399999999999999	0	45.02381551760901	18.38528311653597	-8.222841681566708	0.004954631147956545	8.647462675370803e-05	-4.831825818731706	0	0	-26.43217659892643	-9.648516193173034	4.160440175836569	0.01171244523093788	0.0002044207327393736	-4.831825818731706	0	0	0	0	0	0	-6.122671520596702	0	53.7512938869113	41.4770731177486	0	0	0	-6.122671520596702	0	53.7512938869113	41.4770731177486	0	0
2.899999999999982	3.272021067279707	-12.41760483348337	167.4036008562342	0	0.9399999999999999	0	44.20348924279686	18.51933621254746	-7.899777572956237	0.004806987087122008	8.389775177113055e-05	-4.832499063268584	0	0	-26.66195529063518	-10.58853981801469	3.244984272835111	0.010892252479272	0.0001901056687218119	-4.832499063268584	0	0	0	0	0	0	-6.126737380761883	0	53.77176397510259	41.48571835281867	0	0	0	-6.126737380761883	0	53.77176397510259	41.48571835281867	0	0
2.909999999999982	3.403849168115022	-12.66390695388518	167.3064782725921	0	0.9399999999999999	0	43.24529128363057	18.47560602489044	-7.764764254338927	0.00470616502589761	8.213807484411749e-05	-4.833113506896921	0	0	-26.91495293580265	-11.60078229101385	2.568733213371059	0.01021231561442442	0.0001782385317245338	-4.833113506896921	0	0	0	0	0	0	-6.130467272511383	0	53.79052181004651	41.49362441292438	0	0	0	-6.130467272511383	0	53.79052181004651	41.49362441292438	0	0
2.919999999999982	3.82641665496067	-12.88209252902806	167.4696619574132	0	0.9399999999999999	0	42.47104149757568	18.10456890594343	-7.815708569680766	0.004649610762353789	8.115101673923723e-05	-4.833715372993383	0	0	-26.82521386389607	-12.86039026461197	2.006998823282124	0.009707800654306655	0.000169433084544911	-4.833715372993383	0	0	0	0	0	0	-6.134134121361837	0	53.80894858793062	41.50138006641625	0	0	0	-6.134134121361837	0	53.80894858793062	41.50138006641625	0	0
2.929999999999982	4.423526183027695	-13.0954910033664	167.8083168629527	0	0.9399999999999999	0	41.6382379060656	17.31349827982556	-7.997059067127521	0.004619414482802313	8.062399223921134e-05	-4.83434494806391	0	0	-26.39874953478398	-14.358272429521	1.509734716102198	0.009382474183434705	0.000163755066484302	-4.83434494806391	0	0	0	0	0	0	-6.13797777591158	0	53.82825725624899	41.50950079179153	0	0	0	-6.13797777591158	0	53.82825725624899	41.50950079179153	0	0
2.939999999999981	4.762290826458151	-13.33390447672651	168.1296408133703	0	0.9399999999999999	0	40.285156539034	16.18047533036667	-8.118310360140065	0.004624063779579273	8.070513777587165e-05	-4.836193300953425	0	0	-26.0073859724439	-15.8073307361842	1.054503092313881	0.009192070286795988	0.0001604318915793294	-4.836193300953425	0	0	0	0	0	0	-6.153746956009641	0	53.8999771293029	41.53581389898059	0	0	0	-6.153746956009641	0	53.8999771293029	41.53581389898059	0	0
2.949999999999981	4.585402632010346	-13.60085444373018	168.3822683331978	0	0.9399999999999999	0	38.28645483996688	14.80752538145616	-8.117134402782103	0.004669564291560022	8.149927152127885e-05	-4.838172228793879	0	0	-25.99552824922757	-17.10290564634285	0.6653186219892091	0.009104539117019646	0.0001589041844686101	-4.838172228793879	0	0	0	0	0	0	-6.170876147407161	0	53.9781707421171	41.56429572894606	0	0	0	-6.170876147407161	0	53.9781707421171	41.56429572894606	0	0
2.959999999999981	4.110755167875991	-13.98279792200604	168.499628815049	0	0.9399999999999999	0	35.89291299349992	13.36506220186976	-7.973848632300787	0.004768385727750355	8.322403095434964e-05	-4.840151579139451	0	0	-26.12143285080299	-18.12994983913827	0.3460363490303054	0.009082829148682973	0.0001585252740406315	-4.840151579139451	0	0	0	0	0	0	-6.188543008101085	0	54.05834840827226	41.5931192813372	0	0	0	-6.188543008101085	0	54.05834840827226	41.5931192813372	0	0
2.969999999999981	3.907503772471586	-14.486295165007	168.5671717354226	0	0.9399999999999999	0	33.66412386033538	11.93870879107316	-7.667911599216278	0.004915222149177654	8.578680997010196e-05	-4.842347651343029	0	0	-25.79627112694386	-18.91143385379623	0.1520116376397036	0.009146158826817101	0.0001596305854383003	-4.842347651343029	0	0	0	0	0	0	-6.208851814680942	0	54.14944139187187	41.62539940219476	0	0	0	-6.208851814680942	0	54.14944139187187	41.62539940219476	0	0
2.97999999999998	4.1817997404587	-15.16596532571475	168.6816691492215	0	0.9399999999999999	0	31.82128032746794	10.49933214329739	-7.177618445326429	0.00512374721843174	8.942625900153496e-05	-4.844737515978743	0	0	-25.01845874748897	-19.42636944492984	-0.004608382209884972	0.009206166039235752	0.0001606779088699493	-4.844737515978743	0	0	0	0	0	0	-6.23120641015215	0	54.24882831470834	41.66048909016279	0	0	0	-6.23120641015215	0	54.24882831470834	41.66048909016279	0	0
2.98999999999998	4.619404399707794	-15.85340081956722	168.8548883841674	0	0.9399999999999999	0	30.03103242063303	9.205113576290399	-6.586228713944775	0.005415519333226479	9.451864307021002e-05	-4.845247701766683	0	0	-24.23484503147799	-19.81119252841674	-0.1851181816919237	0.009181742526168914	0.0001602516381520292	-4.845247701766683	0	0	0	0	0	0	-6.234534258402046	0	54.26528236270305	41.66723008472189	0	0	0	-6.234534258402046	0	54.26528236270305	41.66723008472189	0	0
2.99999999999998	4.913070680718414	-16.59239902169247	169.0241837237061	0	0.9399999999999999	0	28.01518778618032	7.966461166589559	-5.887121871741324	0.005794673121936577	0.0001011361250546121	-4.845784439268144	0	0	-23.58346835733498	-20.16514735179277	-0.3581091876609403	0.009153610284235159	0.0001597606379043175	-4.845784439268144	0	0	0	0	0	0	-6.238046247777133	0	54.28263669198898	41.6743312937928	0	0	0	-6.238046247777133	0	54.28263669198898	41.6743312937928	0	0
3.00999999999998	5.045164761464625	-17.2761053910498	169.1326097621635	0	0.9399999999999999	0	25.76107672420268	6.980879467794083	-5.215869970564829	0.006297751675078499	0.0001099165022031079	-4.846301200472015	0	0	-23.06692334869671	-20.89378477051105	-0.5657551608089075	0.009106533797095367	0.0001589389982034554	-4.846301200472015	0	0	0	0	0	0	-6.241431208728965	0	54.29936281003892	41.68117302433258	0	0	0	-6.241431208728965	0	54.29936281003892	41.68117302433258	0	0
3.01999999999998	5.259940974433035	-17.90034274462513	169.1618359166121	0	0.9399999999999999	0	23.55795033997318	6.409093656862304	-4.594781243677041	0.00697099053237247	0.000121666736915252	-4.84689376082927	0	0	-22.78251248954362	-21.99085715023552	-1.047097327071992	0.008898207562262735	0.0001553030194873431	-4.84689376082927	0	0	0	0	0	0	-6.245292097835395	0	54.31847482687797	41.6890087688319	0	0	0	-6.245292097835395	0	54.31847482687797	41.6890087688319	0	0
3.029999999999979	5.596037948666175	-18.47077015300001	169.162391931231	0	0.9399999999999999	0	21.49322796986824	6.263136263231606	-4.110758433841754	0.007884268525182758	0.0001376064448757966	-4.84748965030114	0	0	-22.77620965371262	-23.09714506052504	-1.851289253959339	0.008550861830723185	0.0001492406928292296	-4.84748965030114	0	0	0	0	0	0	-6.249178410742821	0	54.33771433299994	41.69689444973915	0	0	0	-6.249178410742821	0	54.33771433299994	41.69689444973915	0	0
3.039999999999979	5.713589913698089	-18.97494012916339	169.0024859297473	0	0.9399999999999999	0	19.32928872654406	6.480617228108185	-3.78579729521581	0.009173732888846974	0.0001601118436088707	-4.848110130616496	0	0	-23.03961615140394	-23.60123199816463	-2.853072691367629	0.008225890161520073	0.0001435688672259334	-4.848110130616496	0	0	0	0	0	0	-6.253238027914881	0	54.35780156296239	41.70511751126163	0	0	0	-6.253238027914881	0	54.35780156296239	41.70511751126163	0	0
3.049999999999979	5.498910839982462	-19.42074380568496	168.691768688117	0	0.9399999999999999	0	17.03692378972439	6.95635881527067	-3.601505168928549	0.01107534771984997	0.0001933012835146285	-4.848727038112988	0	0	-23.19105620764482	-23.2991381333321	-3.645694229584738	0.00805745388970072	0.0001406290997029016	-4.848727038112988	0	0	0	0	0	0	-6.257311444076045	0	54.37791377927925	41.71332025125452	0	0	0	-6.257311444076045	0	54.37791377927925	41.71332025125452	0	0
3.059999999999979	4.98768384133121	-19.77294076138885	168.2433520846944	0	0.9399999999999999	0	14.66656446821702	7.531637714088097	-3.444219435237246	0.01391380518893305	0.0002428417120279534	-4.852924088773604	0	0	-22.89067600942493	-22.43369045576908	-4.00680588928003	0.008099980066364584	0.0001413713215039708	-4.852924088773604	0	0	0	0	0	0	-6.295974884818673	0	54.55310109410542	41.77520600643935	0	0	0	-6.295974884818673	0	54.55310109410542	41.77520600643935	0	0
3.069999999999979	4.306414884267818	-20.07158265582926	167.7654834709007	0	0.9399999999999999	0	12.344465727514	8.131676184155122	-3.342002341694364	0.01825101020070543	0.0003185402198173808	-4.855504670009172	0	0	-22.03706165055061	-21.19759806788039	-3.875675744916404	0.008316148777156253	0.0001451441772470768	-4.855504670009172	0	0	0	0	0	0	-6.325546064491967	0	54.6779329045719	41.81534348319781	0	0	0	-6.325546064491967	0	54.6779329045719	41.81534348319781	0	0
3.079999999999978	3.66629690143187	-20.3753858402973	167.3664748013245	0	0.9399999999999999	0	10.25902888353011	8.741729049719993	-3.304947222585228	0.02479326766189146	0.0004327241530282421	-4.858207130835288	0	0	-20.94949074692984	-20.09907139522104	-3.484992983669305	0.008486159434435141	0.0001481114229800731	-4.858207130835288	0	0	0	0	0	0	-6.356217356091492	0	54.80799049719998	41.85736458548252	0	0	0	-6.356217356091492	0	54.80799049719998	41.85736458548252	0	0
